<svg xmlns="http://www.w3.org/2000/svg" xmlns:xlink="http://www.w3.org/1999/xlink" width="2000" zoomAndPan="magnify" viewBox="0 0 1500 374.999991" height="500" preserveAspectRatio="xMidYMid meet" version="1.0"><defs><g/><clipPath id="085f6680b0"><path d="M 1313.269531 99.519531 L 1425.769531 99.519531 L 1425.769531 244.269531 L 1313.269531 244.269531 Z M 1313.269531 99.519531 " clip-rule="nonzero"/></clipPath></defs><g fill="#1a77f2" fill-opacity="1"><g transform="translate(524.900192, 307.975893)"><g><path d="M 29.359375 -46.765625 C 32.253906 -46.765625 34.742188 -46.285156 36.828125 -45.328125 C 38.910156 -44.378906 40.5 -43.019531 41.59375 -41.25 C 42.6875 -39.488281 43.234375 -37.398438 43.234375 -34.984375 C 43.234375 -33.734375 43.097656 -32.457031 42.828125 -31.15625 C 41.828125 -26.519531 39.832031 -23.070312 36.84375 -20.8125 C 33.851562 -18.5625 29.597656 -17.4375 24.078125 -17.4375 L 15.28125 -17.4375 L 11.578125 0 L 2.328125 0 L 12.25 -46.765625 Z M 33.671875 -31.921875 C 33.847656 -32.773438 33.9375 -33.507812 33.9375 -34.125 C 33.9375 -35.875 33.375 -37.195312 32.25 -38.09375 C 31.132812 -38.988281 29.488281 -39.4375 27.3125 -39.4375 L 19.921875 -39.4375 L 16.828125 -24.75 L 24.4375 -24.75 C 27.082031 -24.75 29.15625 -25.335938 30.65625 -26.515625 C 32.15625 -27.703125 33.160156 -29.503906 33.671875 -31.921875 Z M 33.671875 -31.921875 "/></g></g></g><g fill="#1a77f2" fill-opacity="1"><g transform="translate(567.626156, 307.975893)"><g><path d="M 1.34375 0 L 8.828125 -35.28125 L 17.4375 -35.28125 L 16.3125 -30.03125 L 16.953125 -29.90625 C 18.191406 -31.90625 19.570312 -33.351562 21.09375 -34.25 C 22.613281 -35.144531 24.441406 -35.59375 26.578125 -35.59375 C 27.535156 -35.59375 28.390625 -35.503906 29.140625 -35.328125 C 29.898438 -35.160156 30.492188 -34.910156 30.921875 -34.578125 L 28.046875 -26.828125 L 27.34375 -26.703125 C 26.21875 -27.210938 24.984375 -27.46875 23.640625 -27.46875 C 18.554688 -27.46875 15.238281 -23.8125 13.6875 -16.5 L 10.203125 0 Z M 1.34375 0 "/></g></g></g><g fill="#1a77f2" fill-opacity="1"><g transform="translate(595.289305, 307.975893)"><g><path d="M 15.25 -39.5 C 13.65625 -39.5 12.351562 -39.984375 11.34375 -40.953125 C 10.34375 -41.921875 9.84375 -43.175781 9.84375 -44.71875 C 9.84375 -46.226562 10.34375 -47.46875 11.34375 -48.4375 C 12.351562 -49.40625 13.65625 -49.890625 15.25 -49.890625 C 16.320312 -49.890625 17.269531 -49.664062 18.09375 -49.21875 C 18.925781 -48.769531 19.570312 -48.15625 20.03125 -47.375 C 20.488281 -46.601562 20.71875 -45.71875 20.71875 -44.71875 C 20.71875 -43.707031 20.488281 -42.804688 20.03125 -42.015625 C 19.570312 -41.234375 18.925781 -40.617188 18.09375 -40.171875 C 17.269531 -39.722656 16.320312 -39.5 15.25 -39.5 Z M 1.34375 0 L 8.859375 -35.28125 L 17.71875 -35.28125 L 10.203125 0 Z M 1.34375 0 "/></g></g></g><g fill="#1a77f2" fill-opacity="1"><g transform="translate(614.28573, 307.975893)"><g><path d="M 20.75 0 L 9.984375 0 L 4.40625 -35.28125 L 13.4375 -35.28125 L 16.734375 -10.140625 L 17.46875 -10.140625 L 31.46875 -35.28125 L 41.03125 -35.28125 Z M 20.75 0 "/></g></g></g><g fill="#1a77f2" fill-opacity="1"><g transform="translate(652.214618, 307.975893)"><g><path d="M 14.046875 0.671875 C 11.953125 0.671875 10.046875 0.191406 8.328125 -0.765625 C 6.609375 -1.722656 5.234375 -3.1875 4.203125 -5.15625 C 3.171875 -7.132812 2.65625 -9.570312 2.65625 -12.46875 C 2.65625 -14.34375 2.890625 -16.378906 3.359375 -18.578125 C 4.578125 -24.273438 6.726562 -28.59375 9.8125 -31.53125 C 12.90625 -34.476562 16.734375 -35.953125 21.296875 -35.953125 C 23.535156 -35.953125 25.445312 -35.566406 27.03125 -34.796875 C 28.625 -34.023438 29.804688 -32.851562 30.578125 -31.28125 L 31.28125 -31.4375 L 32.078125 -35.3125 L 40.9375 -35.3125 L 33.453125 0 L 24.59375 0 L 25.546875 -4.578125 L 24.921875 -4.703125 C 23.554688 -2.992188 22 -1.671875 20.25 -0.734375 C 18.5 0.203125 16.429688 0.671875 14.046875 0.671875 Z M 18 -6.84375 C 20.476562 -6.84375 22.632812 -7.703125 24.46875 -9.421875 C 26.300781 -11.140625 27.566406 -13.660156 28.265625 -16.984375 C 28.585938 -18.554688 28.75 -19.941406 28.75 -21.140625 C 28.75 -23.546875 28.191406 -25.363281 27.078125 -26.59375 C 25.972656 -27.820312 24.484375 -28.4375 22.609375 -28.4375 C 20.003906 -28.4375 17.832031 -27.59375 16.09375 -25.90625 C 14.363281 -24.21875 13.125 -21.628906 12.375 -18.140625 C 12.050781 -16.578125 11.890625 -15.175781 11.890625 -13.9375 C 11.890625 -11.613281 12.421875 -9.847656 13.484375 -8.640625 C 14.554688 -7.441406 16.0625 -6.84375 18 -6.84375 Z M 18 -6.84375 "/></g></g></g><g fill="#1a77f2" fill-opacity="1"><g transform="translate(694.492856, 307.975893)"><g><path d="M 17.296875 0.671875 C 14.460938 0.671875 11.953125 0.148438 9.765625 -0.890625 C 7.585938 -1.941406 5.878906 -3.515625 4.640625 -5.609375 C 3.398438 -7.710938 2.78125 -10.289062 2.78125 -13.34375 C 2.78125 -14.976562 2.992188 -16.832031 3.421875 -18.90625 C 4.191406 -22.4375 5.492188 -25.484375 7.328125 -28.046875 C 9.160156 -30.609375 11.488281 -32.566406 14.3125 -33.921875 C 17.132812 -35.273438 20.359375 -35.953125 23.984375 -35.953125 C 27.671875 -35.953125 30.535156 -35.253906 32.578125 -33.859375 C 34.628906 -32.460938 36.0625 -30.460938 36.875 -27.859375 L 30.25 -23.734375 L 29.578125 -23.734375 C 28.984375 -25.328125 28.15625 -26.507812 27.09375 -27.28125 C 26.039062 -28.050781 24.566406 -28.4375 22.671875 -28.4375 C 20.179688 -28.4375 18.015625 -27.523438 16.171875 -25.703125 C 14.328125 -23.878906 13 -21.054688 12.1875 -17.234375 C 11.925781 -16.066406 11.796875 -14.96875 11.796875 -13.9375 C 11.796875 -11.75 12.359375 -10.019531 13.484375 -8.75 C 14.617188 -7.476562 16.210938 -6.84375 18.265625 -6.84375 C 21.753906 -6.84375 24.578125 -8.890625 26.734375 -12.984375 L 27.4375 -13.046875 L 33.546875 -9.46875 C 32.054688 -6.332031 29.972656 -3.859375 27.296875 -2.046875 C 24.617188 -0.234375 21.285156 0.671875 17.296875 0.671875 Z M 17.296875 0.671875 "/></g></g></g><g fill="#1a77f2" fill-opacity="1"><g transform="translate(730.854692, 307.975893)"><g><path d="M 1.03125 14.96875 C -0.488281 14.96875 -1.859375 14.847656 -3.078125 14.609375 C -4.304688 14.378906 -5.265625 14.070312 -5.953125 13.6875 L -3.03125 6.53125 L -2.4375 6.328125 C -1.9375 6.609375 -1.3125 6.832031 -0.5625 7 C 0.175781 7.175781 0.960938 7.265625 1.796875 7.265625 C 3.222656 7.265625 4.453125 7.078125 5.484375 6.703125 C 6.515625 6.328125 7.453125 5.707031 8.296875 4.84375 C 9.140625 3.976562 9.976562 2.78125 10.8125 1.25 L 4.515625 -35.28125 L 13.3125 -35.28125 L 16.984375 -10.75 L 17.75 -10.75 L 31.40625 -35.28125 L 40.875 -35.28125 L 18.84375 2.84375 C 17.113281 5.832031 15.378906 8.203125 13.640625 9.953125 C 11.898438 11.710938 10.015625 12.988281 7.984375 13.78125 C 5.960938 14.570312 3.644531 14.96875 1.03125 14.96875 Z M 1.03125 14.96875 "/></g></g></g><g fill="#1a77f2" fill-opacity="1"><g transform="translate(768.720488, 307.975893)"><g/></g></g><g fill="#1a77f2" fill-opacity="1"><g transform="translate(784.167081, 307.975893)"><g/></g></g><g fill="#1a77f2" fill-opacity="1"><g transform="translate(799.613674, 307.975893)"><g/></g></g><g fill="#1a77f2" fill-opacity="1"><g transform="translate(815.060268, 307.975893)"><g/></g></g><g fill="#1a77f2" fill-opacity="1"><g transform="translate(830.506861, 307.975893)"><g/></g></g><g fill="#1a77f2" fill-opacity="1"><g transform="translate(845.953454, 307.975893)"><g/></g></g><g fill="#1a77f2" fill-opacity="1"><g transform="translate(861.400047, 307.975893)"><g/></g></g><g fill="#1a77f2" fill-opacity="1"><g transform="translate(876.846641, 307.975893)"><g/></g></g><g fill="#1a77f2" fill-opacity="1"><g transform="translate(892.294702, 307.975893)"><g><path d="M 10.8125 0 L 2.328125 0 L 12.25 -46.765625 L 23.859375 -46.765625 L 28.265625 -12.375 L 28.9375 -12.375 L 47.96875 -46.765625 L 60.421875 -46.765625 L 50.5 0 L 41.734375 0 L 48.296875 -30.890625 L 47.53125 -31.015625 L 30.28125 0 L 22.421875 0 L 18.203125 -31.015625 L 17.359375 -30.890625 Z M 10.8125 0 "/></g></g></g><g fill="#1a77f2" fill-opacity="1"><g transform="translate(952.609949, 307.975893)"><g><path d="M 14.046875 0.671875 C 11.953125 0.671875 10.046875 0.191406 8.328125 -0.765625 C 6.609375 -1.722656 5.234375 -3.1875 4.203125 -5.15625 C 3.171875 -7.132812 2.65625 -9.570312 2.65625 -12.46875 C 2.65625 -14.34375 2.890625 -16.378906 3.359375 -18.578125 C 4.578125 -24.273438 6.726562 -28.59375 9.8125 -31.53125 C 12.90625 -34.476562 16.734375 -35.953125 21.296875 -35.953125 C 23.535156 -35.953125 25.445312 -35.566406 27.03125 -34.796875 C 28.625 -34.023438 29.804688 -32.851562 30.578125 -31.28125 L 31.28125 -31.4375 L 32.078125 -35.3125 L 40.9375 -35.3125 L 33.453125 0 L 24.59375 0 L 25.546875 -4.578125 L 24.921875 -4.703125 C 23.554688 -2.992188 22 -1.671875 20.25 -0.734375 C 18.5 0.203125 16.429688 0.671875 14.046875 0.671875 Z M 18 -6.84375 C 20.476562 -6.84375 22.632812 -7.703125 24.46875 -9.421875 C 26.300781 -11.140625 27.566406 -13.660156 28.265625 -16.984375 C 28.585938 -18.554688 28.75 -19.941406 28.75 -21.140625 C 28.75 -23.546875 28.191406 -25.363281 27.078125 -26.59375 C 25.972656 -27.820312 24.484375 -28.4375 22.609375 -28.4375 C 20.003906 -28.4375 17.832031 -27.59375 16.09375 -25.90625 C 14.363281 -24.21875 13.125 -21.628906 12.375 -18.140625 C 12.050781 -16.578125 11.890625 -15.175781 11.890625 -13.9375 C 11.890625 -11.613281 12.421875 -9.847656 13.484375 -8.640625 C 14.554688 -7.441406 16.0625 -6.84375 18 -6.84375 Z M 18 -6.84375 "/></g></g></g><g fill="#1a77f2" fill-opacity="1"><g transform="translate(994.888186, 307.975893)"><g><path d="M 1.34375 0 L 8.828125 -35.28125 L 17.328125 -35.28125 L 16.25 -30.09375 L 16.859375 -29.9375 C 18.179688 -31.914062 19.753906 -33.410156 21.578125 -34.421875 C 23.398438 -35.441406 25.597656 -35.953125 28.171875 -35.953125 C 31.410156 -35.953125 33.878906 -35.070312 35.578125 -33.3125 C 37.273438 -31.550781 38.125 -29.113281 38.125 -26 C 38.125 -24.675781 37.960938 -23.226562 37.640625 -21.65625 L 33.03125 0 L 24.171875 0 L 28.8125 -21.84375 C 28.96875 -22.5 29.046875 -23.171875 29.046875 -23.859375 C 29.046875 -25.328125 28.617188 -26.460938 27.765625 -27.265625 C 26.910156 -28.066406 25.648438 -28.46875 23.984375 -28.46875 C 21.535156 -28.46875 19.457031 -27.644531 17.75 -26 C 16.039062 -24.363281 14.816406 -21.785156 14.078125 -18.265625 L 10.203125 0 Z M 1.34375 0 "/></g></g></g><g fill="#1a77f2" fill-opacity="1"><g transform="translate(1036.207008, 307.975893)"><g><path d="M 14.046875 0.671875 C 11.953125 0.671875 10.046875 0.191406 8.328125 -0.765625 C 6.609375 -1.722656 5.234375 -3.1875 4.203125 -5.15625 C 3.171875 -7.132812 2.65625 -9.570312 2.65625 -12.46875 C 2.65625 -14.34375 2.890625 -16.378906 3.359375 -18.578125 C 4.578125 -24.273438 6.726562 -28.59375 9.8125 -31.53125 C 12.90625 -34.476562 16.734375 -35.953125 21.296875 -35.953125 C 23.535156 -35.953125 25.445312 -35.566406 27.03125 -34.796875 C 28.625 -34.023438 29.804688 -32.851562 30.578125 -31.28125 L 31.28125 -31.4375 L 32.078125 -35.3125 L 40.9375 -35.3125 L 33.453125 0 L 24.59375 0 L 25.546875 -4.578125 L 24.921875 -4.703125 C 23.554688 -2.992188 22 -1.671875 20.25 -0.734375 C 18.5 0.203125 16.429688 0.671875 14.046875 0.671875 Z M 18 -6.84375 C 20.476562 -6.84375 22.632812 -7.703125 24.46875 -9.421875 C 26.300781 -11.140625 27.566406 -13.660156 28.265625 -16.984375 C 28.585938 -18.554688 28.75 -19.941406 28.75 -21.140625 C 28.75 -23.546875 28.191406 -25.363281 27.078125 -26.59375 C 25.972656 -27.820312 24.484375 -28.4375 22.609375 -28.4375 C 20.003906 -28.4375 17.832031 -27.59375 16.09375 -25.90625 C 14.363281 -24.21875 13.125 -21.628906 12.375 -18.140625 C 12.050781 -16.578125 11.890625 -15.175781 11.890625 -13.9375 C 11.890625 -11.613281 12.421875 -9.847656 13.484375 -8.640625 C 14.554688 -7.441406 16.0625 -6.84375 18 -6.84375 Z M 18 -6.84375 "/></g></g></g><g fill="#1a77f2" fill-opacity="1"><g transform="translate(1078.485246, 307.975893)"><g><path d="M 12 14.96875 C 8.90625 14.96875 6.175781 14.617188 3.8125 13.921875 C 1.457031 13.234375 -0.363281 12.222656 -1.65625 10.890625 C -2.957031 9.554688 -3.609375 7.960938 -3.609375 6.109375 C -3.609375 5.535156 -3.546875 4.9375 -3.421875 4.3125 C -3.097656 2.820312 -2.226562 1.507812 -0.8125 0.375 C 0.601562 -0.75 2.453125 -1.425781 4.734375 -1.65625 L 4.859375 -2.328125 C 4.109375 -2.929688 3.546875 -3.578125 3.171875 -4.265625 C 2.804688 -4.960938 2.625 -5.769531 2.625 -6.6875 C 2.625 -7.21875 2.6875 -7.78125 2.8125 -8.375 C 3.34375 -11.019531 5.550781 -12.75 9.4375 -13.5625 L 9.5625 -14.234375 C 8.320312 -15.085938 7.375 -16.109375 6.71875 -17.296875 C 6.070312 -18.492188 5.75 -19.945312 5.75 -21.65625 C 5.75 -22.695312 5.878906 -23.835938 6.140625 -25.078125 C 6.566406 -27.097656 7.472656 -28.929688 8.859375 -30.578125 C 10.242188 -32.234375 12.035156 -33.539062 14.234375 -34.5 C 16.429688 -35.46875 18.90625 -35.953125 21.65625 -35.953125 C 24.59375 -35.953125 26.957031 -35.351562 28.75 -34.15625 C 30.238281 -35.738281 31.335938 -37.644531 32.046875 -39.875 L 32.8125 -40.296875 L 38.828125 -38.734375 C 38.273438 -36.835938 37.472656 -35.289062 36.421875 -34.09375 C 35.378906 -32.894531 33.953125 -32.007812 32.140625 -31.4375 L 31.984375 -30.734375 C 33.066406 -29.515625 33.609375 -27.9375 33.609375 -26 C 33.609375 -24.957031 33.472656 -23.773438 33.203125 -22.453125 C 32.796875 -20.515625 31.957031 -18.753906 30.6875 -17.171875 C 29.414062 -15.597656 27.644531 -14.335938 25.375 -13.390625 C 23.101562 -12.441406 20.367188 -11.96875 17.171875 -11.96875 L 15.828125 -12 C 15.015625 -12.039062 14.429688 -12.0625 14.078125 -12.0625 C 13.265625 -12.0625 12.578125 -11.84375 12.015625 -11.40625 C 11.460938 -10.96875 11.113281 -10.40625 10.96875 -9.71875 C 10.925781 -9.507812 10.90625 -9.351562 10.90625 -9.25 C 10.90625 -8.644531 11.164062 -8.164062 11.6875 -7.8125 C 12.207031 -7.46875 12.96875 -7.273438 13.96875 -7.234375 L 20.859375 -6.9375 C 27.953125 -6.644531 31.5 -3.945312 31.5 1.15625 C 31.5 2.070312 31.394531 3.03125 31.1875 4.03125 C 30.757812 6.03125 29.835938 7.84375 28.421875 9.46875 C 27.003906 11.101562 24.929688 12.425781 22.203125 13.4375 C 19.472656 14.457031 16.070312 14.96875 12 14.96875 Z M 18.515625 -18.171875 C 20.222656 -18.171875 21.660156 -18.675781 22.828125 -19.6875 C 24.003906 -20.695312 24.796875 -22.160156 25.203125 -24.078125 C 25.328125 -24.640625 25.390625 -25.164062 25.390625 -25.65625 C 25.390625 -26.925781 25 -27.921875 24.21875 -28.640625 C 23.445312 -29.359375 22.359375 -29.71875 20.953125 -29.71875 C 19.203125 -29.71875 17.753906 -29.210938 16.609375 -28.203125 C 15.472656 -27.203125 14.703125 -25.742188 14.296875 -23.828125 C 14.171875 -23.253906 14.109375 -22.710938 14.109375 -22.203125 C 14.109375 -20.921875 14.484375 -19.925781 15.234375 -19.21875 C 15.992188 -18.519531 17.085938 -18.171875 18.515625 -18.171875 Z M 12.734375 8.546875 C 14.691406 8.546875 16.359375 8.34375 17.734375 7.9375 C 19.109375 7.53125 20.171875 6.992188 20.921875 6.328125 C 21.679688 5.671875 22.148438 4.945312 22.328125 4.15625 C 22.410156 3.8125 22.453125 3.472656 22.453125 3.140625 C 22.453125 2.285156 22.109375 1.660156 21.421875 1.265625 C 20.742188 0.867188 19.613281 0.628906 18.03125 0.546875 L 11.765625 0.21875 C 11.171875 0.175781 10.753906 0.15625 10.515625 0.15625 C 8.941406 0.15625 7.648438 0.546875 6.640625 1.328125 C 5.628906 2.109375 5.125 3.148438 5.125 4.453125 C 5.125 5.742188 5.796875 6.75 7.140625 7.46875 C 8.492188 8.1875 10.359375 8.546875 12.734375 8.546875 Z M 12.734375 8.546875 "/></g></g></g><g fill="#1a77f2" fill-opacity="1"><g transform="translate(1115.166911, 307.975893)"><g><path d="M 35.890625 -24.625 C 35.078125 -20.695312 32.941406 -17.878906 29.484375 -16.171875 C 26.035156 -14.472656 21.816406 -13.625 16.828125 -13.625 C 15.054688 -13.625 13.410156 -13.695312 11.890625 -13.84375 C 11.984375 -11.5 12.601562 -9.742188 13.75 -8.578125 C 14.90625 -7.421875 16.523438 -6.84375 18.609375 -6.84375 C 20.554688 -6.84375 22.164062 -7.222656 23.4375 -7.984375 C 24.71875 -8.753906 25.894531 -9.929688 26.96875 -11.515625 L 27.640625 -11.515625 L 33.328125 -7.640625 C 32.234375 -5.890625 31.015625 -4.414062 29.671875 -3.21875 C 28.335938 -2.03125 26.640625 -1.082031 24.578125 -0.375 C 22.523438 0.320312 20.003906 0.671875 17.015625 0.671875 C 14.304688 0.671875 11.890625 0.09375 9.765625 -1.0625 C 7.648438 -2.226562 5.988281 -3.914062 4.78125 -6.125 C 3.570312 -8.332031 2.96875 -10.972656 2.96875 -14.046875 C 2.96875 -15.785156 3.171875 -17.628906 3.578125 -19.578125 C 4.304688 -22.984375 5.644531 -25.914062 7.59375 -28.375 C 9.539062 -30.84375 11.894531 -32.722656 14.65625 -34.015625 C 17.425781 -35.304688 20.390625 -35.953125 23.546875 -35.953125 C 26.222656 -35.953125 28.503906 -35.539062 30.390625 -34.71875 C 32.285156 -33.894531 33.710938 -32.773438 34.671875 -31.359375 C 35.628906 -29.941406 36.109375 -28.367188 36.109375 -26.640625 C 36.109375 -25.910156 36.035156 -25.238281 35.890625 -24.625 Z M 22.703125 -29.078125 C 21.335938 -29.078125 20.007812 -28.765625 18.71875 -28.140625 C 17.4375 -27.523438 16.269531 -26.59375 15.21875 -25.34375 C 14.175781 -24.09375 13.378906 -22.539062 12.828125 -20.6875 C 14.460938 -20.5625 16.019531 -20.5 17.5 -20.5 C 20.394531 -20.5 22.703125 -20.859375 24.421875 -21.578125 C 26.140625 -22.304688 27.1875 -23.585938 27.5625 -25.421875 C 27.613281 -25.679688 27.640625 -25.882812 27.640625 -26.03125 C 27.640625 -26.925781 27.210938 -27.65625 26.359375 -28.21875 C 25.503906 -28.789062 24.285156 -29.078125 22.703125 -29.078125 Z M 22.703125 -29.078125 "/></g></g></g><g fill="#1a77f2" fill-opacity="1"><g transform="translate(1153.511551, 307.975893)"><g><path d="M 1.34375 0 L 8.828125 -35.28125 L 17.328125 -35.28125 L 16.34375 -30.546875 L 16.984375 -30.421875 C 18.179688 -32.273438 19.65625 -33.660156 21.40625 -34.578125 C 23.164062 -35.492188 25.273438 -35.953125 27.734375 -35.953125 C 32.722656 -35.953125 35.738281 -33.882812 36.78125 -29.75 L 37.453125 -29.75 C 38.796875 -31.875 40.378906 -33.4375 42.203125 -34.4375 C 44.023438 -35.445312 46.203125 -35.953125 48.734375 -35.953125 C 51.804688 -35.953125 54.125 -35.15625 55.6875 -33.5625 C 57.257812 -31.976562 58.046875 -29.753906 58.046875 -26.890625 C 58.046875 -25.617188 57.882812 -24.242188 57.5625 -22.765625 L 52.734375 0 L 43.875 0 L 48.671875 -22.609375 C 48.828125 -23.296875 48.90625 -23.957031 48.90625 -24.59375 C 48.90625 -27.175781 47.429688 -28.46875 44.484375 -28.46875 C 42.222656 -28.46875 40.332031 -27.695312 38.8125 -26.15625 C 37.289062 -24.625 36.164062 -22.140625 35.4375 -18.703125 L 31.46875 0 L 22.609375 0 L 27.40625 -22.609375 C 27.5625 -23.296875 27.640625 -23.957031 27.640625 -24.59375 C 27.640625 -27.175781 26.15625 -28.46875 23.1875 -28.46875 C 20.945312 -28.46875 19.0625 -27.707031 17.53125 -26.1875 C 16.007812 -24.675781 14.898438 -22.25 14.203125 -18.90625 L 10.203125 0 Z M 1.34375 0 "/></g></g></g><g fill="#1a77f2" fill-opacity="1"><g transform="translate(1214.530368, 307.975893)"><g><path d="M 35.890625 -24.625 C 35.078125 -20.695312 32.941406 -17.878906 29.484375 -16.171875 C 26.035156 -14.472656 21.816406 -13.625 16.828125 -13.625 C 15.054688 -13.625 13.410156 -13.695312 11.890625 -13.84375 C 11.984375 -11.5 12.601562 -9.742188 13.75 -8.578125 C 14.90625 -7.421875 16.523438 -6.84375 18.609375 -6.84375 C 20.554688 -6.84375 22.164062 -7.222656 23.4375 -7.984375 C 24.71875 -8.753906 25.894531 -9.929688 26.96875 -11.515625 L 27.640625 -11.515625 L 33.328125 -7.640625 C 32.234375 -5.890625 31.015625 -4.414062 29.671875 -3.21875 C 28.335938 -2.03125 26.640625 -1.082031 24.578125 -0.375 C 22.523438 0.320312 20.003906 0.671875 17.015625 0.671875 C 14.304688 0.671875 11.890625 0.09375 9.765625 -1.0625 C 7.648438 -2.226562 5.988281 -3.914062 4.78125 -6.125 C 3.570312 -8.332031 2.96875 -10.972656 2.96875 -14.046875 C 2.96875 -15.785156 3.171875 -17.628906 3.578125 -19.578125 C 4.304688 -22.984375 5.644531 -25.914062 7.59375 -28.375 C 9.539062 -30.84375 11.894531 -32.722656 14.65625 -34.015625 C 17.425781 -35.304688 20.390625 -35.953125 23.546875 -35.953125 C 26.222656 -35.953125 28.503906 -35.539062 30.390625 -34.71875 C 32.285156 -33.894531 33.710938 -32.773438 34.671875 -31.359375 C 35.628906 -29.941406 36.109375 -28.367188 36.109375 -26.640625 C 36.109375 -25.910156 36.035156 -25.238281 35.890625 -24.625 Z M 22.703125 -29.078125 C 21.335938 -29.078125 20.007812 -28.765625 18.71875 -28.140625 C 17.4375 -27.523438 16.269531 -26.59375 15.21875 -25.34375 C 14.175781 -24.09375 13.378906 -22.539062 12.828125 -20.6875 C 14.460938 -20.5625 16.019531 -20.5 17.5 -20.5 C 20.394531 -20.5 22.703125 -20.859375 24.421875 -21.578125 C 26.140625 -22.304688 27.1875 -23.585938 27.5625 -25.421875 C 27.613281 -25.679688 27.640625 -25.882812 27.640625 -26.03125 C 27.640625 -26.925781 27.210938 -27.65625 26.359375 -28.21875 C 25.503906 -28.789062 24.285156 -29.078125 22.703125 -29.078125 Z M 22.703125 -29.078125 "/></g></g></g><g fill="#1a77f2" fill-opacity="1"><g transform="translate(1252.875008, 307.975893)"><g><path d="M 1.34375 0 L 8.828125 -35.28125 L 17.328125 -35.28125 L 16.25 -30.09375 L 16.859375 -29.9375 C 18.179688 -31.914062 19.753906 -33.410156 21.578125 -34.421875 C 23.398438 -35.441406 25.597656 -35.953125 28.171875 -35.953125 C 31.410156 -35.953125 33.878906 -35.070312 35.578125 -33.3125 C 37.273438 -31.550781 38.125 -29.113281 38.125 -26 C 38.125 -24.675781 37.960938 -23.226562 37.640625 -21.65625 L 33.03125 0 L 24.171875 0 L 28.8125 -21.84375 C 28.96875 -22.5 29.046875 -23.171875 29.046875 -23.859375 C 29.046875 -25.328125 28.617188 -26.460938 27.765625 -27.265625 C 26.910156 -28.066406 25.648438 -28.46875 23.984375 -28.46875 C 21.535156 -28.46875 19.457031 -27.644531 17.75 -26 C 16.039062 -24.363281 14.816406 -21.785156 14.078125 -18.265625 L 10.203125 0 Z M 1.34375 0 "/></g></g></g><g fill="#1a77f2" fill-opacity="1"><g transform="translate(1294.19383, 307.975893)"><g><path d="M 17.5625 -28.265625 L 14.140625 -12.15625 C 14.003906 -11.5625 13.9375 -11.003906 13.9375 -10.484375 C 13.9375 -9.398438 14.226562 -8.566406 14.8125 -7.984375 C 15.40625 -7.410156 16.242188 -7.125 17.328125 -7.125 C 18.097656 -7.125 18.8125 -7.226562 19.46875 -7.4375 C 20.132812 -7.65625 20.8125 -7.976562 21.5 -8.40625 L 22.15625 -8.40625 L 23.375 -1.859375 C 22.269531 -1.023438 21.070312 -0.394531 19.78125 0.03125 C 18.488281 0.457031 16.8125 0.671875 14.75 0.671875 C 12.800781 0.671875 11.09375 0.328125 9.625 -0.359375 C 8.15625 -1.054688 7.003906 -2.109375 6.171875 -3.515625 C 5.335938 -4.921875 4.921875 -6.648438 4.921875 -8.703125 C 4.921875 -9.890625 5.0625 -11.144531 5.34375 -12.46875 L 8.703125 -28.265625 L 3.328125 -28.265625 L 4.828125 -35.3125 L 10.203125 -35.3125 L 11.671875 -42.1875 L 20.828125 -43.625 L 19.0625 -35.3125 L 29.078125 -35.3125 L 27.5625 -28.265625 Z M 17.5625 -28.265625 "/></g></g></g><g fill="#1a77f2" fill-opacity="1"><g transform="translate(17.707995, 244.324598)"><g><path d="M 52.96875 1.875 C 39.96875 1.875 29.671875 -2.5625 22.078125 -11.4375 C 14.484375 -20.3125 10.6875 -33.5 10.6875 -51 C 10.6875 -68.6875 14.5625 -82.046875 22.3125 -91.078125 C 30.0625 -100.109375 40.375 -104.625 53.25 -104.625 C 58.6875 -104.625 63.4375 -103.90625 67.5 -102.46875 C 71.5625 -101.03125 75.0625 -99.109375 78 -96.703125 C 80.9375 -94.296875 83.40625 -91.5625 85.40625 -88.5 L 86.53125 -88.5 C 86.28125 -90.4375 86.03125 -93.09375 85.78125 -96.46875 C 85.53125 -99.84375 85.40625 -102.59375 85.40625 -104.71875 L 85.40625 -145.875 L 100.96875 -145.875 L 100.96875 0 L 88.40625 0 L 86.0625 -14.625 L 85.40625 -14.625 C 83.46875 -11.5625 81.015625 -8.78125 78.046875 -6.28125 C 75.078125 -3.78125 71.546875 -1.796875 67.453125 -0.328125 C 63.359375 1.140625 58.53125 1.875 52.96875 1.875 Z M 55.40625 -11.0625 C 66.40625 -11.0625 74.1875 -14.1875 78.75 -20.4375 C 83.3125 -26.6875 85.59375 -35.96875 85.59375 -48.28125 L 85.59375 -51.09375 C 85.59375 -64.15625 83.421875 -74.1875 79.078125 -81.1875 C 74.734375 -88.1875 66.84375 -91.6875 55.40625 -91.6875 C 45.84375 -91.6875 38.6875 -88.015625 33.9375 -80.671875 C 29.1875 -73.328125 26.8125 -63.3125 26.8125 -50.625 C 26.8125 -38 29.171875 -28.25 33.890625 -21.375 C 38.609375 -14.5 45.78125 -11.0625 55.40625 -11.0625 Z M 55.40625 -11.0625 "/></g></g><g transform="translate(135.176738, 244.324598)"><g><path d="M 54.84375 -104.4375 C 67.09375 -104.4375 76.1875 -101.6875 82.125 -96.1875 C 88.0625 -90.6875 91.03125 -81.90625 91.03125 -69.84375 L 91.03125 0 L 79.6875 0 L 76.6875 -15.1875 L 75.9375 -15.1875 C 73.0625 -11.4375 70.0625 -8.296875 66.9375 -5.765625 C 63.8125 -3.234375 60.203125 -1.328125 56.109375 -0.046875 C 52.015625 1.234375 47 1.875 41.0625 1.875 C 34.8125 1.875 29.265625 0.78125 24.421875 -1.40625 C 19.578125 -3.59375 15.765625 -6.90625 12.984375 -11.34375 C 10.203125 -15.78125 8.8125 -21.40625 8.8125 -28.21875 C 8.8125 -38.46875 12.875 -46.34375 21 -51.84375 C 29.125 -57.34375 41.5 -60.34375 58.125 -60.84375 L 75.84375 -61.59375 L 75.84375 -67.875 C 75.84375 -76.75 73.9375 -82.96875 70.125 -86.53125 C 66.3125 -90.09375 60.9375 -91.875 54 -91.875 C 48.625 -91.875 43.5 -91.09375 38.625 -89.53125 C 33.75 -87.96875 29.125 -86.125 24.75 -84 L 19.96875 -95.8125 C 24.59375 -98.1875 29.90625 -100.21875 35.90625 -101.90625 C 41.90625 -103.59375 48.21875 -104.4375 54.84375 -104.4375 Z M 75.65625 -50.625 L 60 -49.96875 C 47.1875 -49.46875 38.15625 -47.375 32.90625 -43.6875 C 27.65625 -40 25.03125 -34.78125 25.03125 -28.03125 C 25.03125 -22.15625 26.8125 -17.8125 30.375 -15 C 33.9375 -12.1875 38.65625 -10.78125 44.53125 -10.78125 C 53.65625 -10.78125 61.125 -13.3125 66.9375 -18.375 C 72.75 -23.4375 75.65625 -31.03125 75.65625 -41.15625 Z M 75.65625 -50.625 "/></g></g><g transform="translate(241.86423, 244.324598)"><g><path d="M 49.59375 -10.875 C 52.15625 -10.875 54.78125 -11.09375 57.46875 -11.53125 C 60.15625 -11.96875 62.34375 -12.5 64.03125 -13.125 L 64.03125 -1.03125 C 62.21875 -0.21875 59.703125 0.46875 56.484375 1.03125 C 53.265625 1.59375 50.125 1.875 47.0625 1.875 C 41.625 1.875 36.6875 0.921875 32.25 -0.984375 C 27.8125 -2.890625 24.265625 -6.125 21.609375 -10.6875 C 18.953125 -15.25 17.625 -21.5625 17.625 -29.625 L 17.625 -90.5625 L 3 -90.5625 L 3 -98.15625 L 17.71875 -104.25 L 23.90625 -126.5625 L 33.28125 -126.5625 L 33.28125 -102.75 L 63.375 -102.75 L 63.375 -90.5625 L 33.28125 -90.5625 L 33.28125 -30.09375 C 33.28125 -23.65625 34.765625 -18.84375 37.734375 -15.65625 C 40.703125 -12.46875 44.65625 -10.875 49.59375 -10.875 Z M 49.59375 -10.875 "/></g></g><g transform="translate(310.301725, 244.324598)"><g><path d="M 54.84375 -104.4375 C 67.09375 -104.4375 76.1875 -101.6875 82.125 -96.1875 C 88.0625 -90.6875 91.03125 -81.90625 91.03125 -69.84375 L 91.03125 0 L 79.6875 0 L 76.6875 -15.1875 L 75.9375 -15.1875 C 73.0625 -11.4375 70.0625 -8.296875 66.9375 -5.765625 C 63.8125 -3.234375 60.203125 -1.328125 56.109375 -0.046875 C 52.015625 1.234375 47 1.875 41.0625 1.875 C 34.8125 1.875 29.265625 0.78125 24.421875 -1.40625 C 19.578125 -3.59375 15.765625 -6.90625 12.984375 -11.34375 C 10.203125 -15.78125 8.8125 -21.40625 8.8125 -28.21875 C 8.8125 -38.46875 12.875 -46.34375 21 -51.84375 C 29.125 -57.34375 41.5 -60.34375 58.125 -60.84375 L 75.84375 -61.59375 L 75.84375 -67.875 C 75.84375 -76.75 73.9375 -82.96875 70.125 -86.53125 C 66.3125 -90.09375 60.9375 -91.875 54 -91.875 C 48.625 -91.875 43.5 -91.09375 38.625 -89.53125 C 33.75 -87.96875 29.125 -86.125 24.75 -84 L 19.96875 -95.8125 C 24.59375 -98.1875 29.90625 -100.21875 35.90625 -101.90625 C 41.90625 -103.59375 48.21875 -104.4375 54.84375 -104.4375 Z M 75.65625 -50.625 L 60 -49.96875 C 47.1875 -49.46875 38.15625 -47.375 32.90625 -43.6875 C 27.65625 -40 25.03125 -34.78125 25.03125 -28.03125 C 25.03125 -22.15625 26.8125 -17.8125 30.375 -15 C 33.9375 -12.1875 38.65625 -10.78125 44.53125 -10.78125 C 53.65625 -10.78125 61.125 -13.3125 66.9375 -18.375 C 72.75 -23.4375 75.65625 -31.03125 75.65625 -41.15625 Z M 75.65625 -50.625 "/></g></g></g><g fill="#000000" fill-opacity="1"><g transform="translate(416.989218, 244.324598)"><g><path d="M 82.875 -28.125 C 82.875 -21.5625 81.234375 -16.046875 77.953125 -11.578125 C 74.671875 -7.109375 69.984375 -3.75 63.890625 -1.5 C 57.796875 0.75 50.53125 1.875 42.09375 1.875 C 34.90625 1.875 28.6875 1.3125 23.4375 0.1875 C 18.1875 -0.9375 13.59375 -2.53125 9.65625 -4.59375 L 9.65625 -18.9375 C 13.84375 -16.875 18.84375 -15 24.65625 -13.3125 C 30.46875 -11.625 36.40625 -10.78125 42.46875 -10.78125 C 51.34375 -10.78125 57.78125 -12.21875 61.78125 -15.09375 C 65.78125 -17.96875 67.78125 -21.875 67.78125 -26.8125 C 67.78125 -29.625 66.984375 -32.109375 65.390625 -34.265625 C 63.796875 -36.421875 61.125 -38.515625 57.375 -40.546875 C 53.625 -42.578125 48.4375 -44.8125 41.8125 -47.25 C 35.25 -49.75 29.578125 -52.234375 24.796875 -54.703125 C 20.015625 -57.171875 16.328125 -60.1875 13.734375 -63.75 C 11.140625 -67.3125 9.84375 -71.9375 9.84375 -77.625 C 9.84375 -86.3125 13.359375 -92.984375 20.390625 -97.640625 C 27.421875 -102.296875 36.65625 -104.625 48.09375 -104.625 C 54.28125 -104.625 60.078125 -104.015625 65.484375 -102.796875 C 70.890625 -101.578125 75.9375 -99.9375 80.625 -97.875 L 75.375 -85.40625 C 71.125 -87.21875 66.59375 -88.75 61.78125 -90 C 56.96875 -91.25 52.0625 -91.875 47.0625 -91.875 C 39.875 -91.875 34.359375 -90.6875 30.515625 -88.3125 C 26.671875 -85.9375 24.75 -82.6875 24.75 -78.5625 C 24.75 -75.375 25.640625 -72.75 27.421875 -70.6875 C 29.203125 -68.625 32.0625 -66.6875 36 -64.875 C 39.9375 -63.0625 45.125 -60.9375 51.5625 -58.5 C 58 -56.125 63.5625 -53.671875 68.25 -51.140625 C 72.9375 -48.609375 76.546875 -45.546875 79.078125 -41.953125 C 81.609375 -38.359375 82.875 -33.75 82.875 -28.125 Z M 82.875 -28.125 "/></g></g><g transform="translate(508.489212, 244.324598)"><g><path d="M 54.84375 -104.4375 C 67.09375 -104.4375 76.1875 -101.6875 82.125 -96.1875 C 88.0625 -90.6875 91.03125 -81.90625 91.03125 -69.84375 L 91.03125 0 L 79.6875 0 L 76.6875 -15.1875 L 75.9375 -15.1875 C 73.0625 -11.4375 70.0625 -8.296875 66.9375 -5.765625 C 63.8125 -3.234375 60.203125 -1.328125 56.109375 -0.046875 C 52.015625 1.234375 47 1.875 41.0625 1.875 C 34.8125 1.875 29.265625 0.78125 24.421875 -1.40625 C 19.578125 -3.59375 15.765625 -6.90625 12.984375 -11.34375 C 10.203125 -15.78125 8.8125 -21.40625 8.8125 -28.21875 C 8.8125 -38.46875 12.875 -46.34375 21 -51.84375 C 29.125 -57.34375 41.5 -60.34375 58.125 -60.84375 L 75.84375 -61.59375 L 75.84375 -67.875 C 75.84375 -76.75 73.9375 -82.96875 70.125 -86.53125 C 66.3125 -90.09375 60.9375 -91.875 54 -91.875 C 48.625 -91.875 43.5 -91.09375 38.625 -89.53125 C 33.75 -87.96875 29.125 -86.125 24.75 -84 L 19.96875 -95.8125 C 24.59375 -98.1875 29.90625 -100.21875 35.90625 -101.90625 C 41.90625 -103.59375 48.21875 -104.4375 54.84375 -104.4375 Z M 75.65625 -50.625 L 60 -49.96875 C 47.1875 -49.46875 38.15625 -47.375 32.90625 -43.6875 C 27.65625 -40 25.03125 -34.78125 25.03125 -28.03125 C 25.03125 -22.15625 26.8125 -17.8125 30.375 -15 C 33.9375 -12.1875 38.65625 -10.78125 44.53125 -10.78125 C 53.65625 -10.78125 61.125 -13.3125 66.9375 -18.375 C 72.75 -23.4375 75.65625 -31.03125 75.65625 -41.15625 Z M 75.65625 -50.625 "/></g></g><g transform="translate(615.176705, 244.324598)"><g><path d="M 62.15625 -90.5625 L 36.5625 -90.5625 L 36.5625 0 L 21 0 L 21 -90.5625 L 2.8125 -90.5625 L 2.8125 -98.0625 L 21 -103.21875 L 21 -110.0625 C 21 -118.6875 22.28125 -125.703125 24.84375 -131.109375 C 27.40625 -136.515625 31.125 -140.5 36 -143.0625 C 40.875 -145.625 46.8125 -146.90625 53.8125 -146.90625 C 57.75 -146.90625 61.359375 -146.5625 64.640625 -145.875 C 67.921875 -145.1875 70.8125 -144.40625 73.3125 -143.53125 L 69.28125 -131.25 C 67.15625 -131.9375 64.765625 -132.578125 62.109375 -133.171875 C 59.453125 -133.765625 56.75 -134.0625 54 -134.0625 C 48.0625 -134.0625 43.671875 -132.140625 40.828125 -128.296875 C 37.984375 -124.453125 36.5625 -118.4375 36.5625 -110.25 L 36.5625 -102.75 L 62.15625 -102.75 Z M 62.15625 -90.5625 "/></g></g><g transform="translate(679.77045, 244.324598)"><g><path d="M 55.96875 -104.625 C 64.71875 -104.625 72.21875 -102.6875 78.46875 -98.8125 C 84.71875 -94.9375 89.5 -89.515625 92.8125 -82.546875 C 96.125 -75.578125 97.78125 -67.4375 97.78125 -58.125 L 97.78125 -48.46875 L 26.8125 -48.46875 C 27 -36.40625 30 -27.21875 35.8125 -20.90625 C 41.625 -14.59375 49.8125 -11.4375 60.375 -11.4375 C 66.875 -11.4375 72.625 -12.03125 77.625 -13.21875 C 82.625 -14.40625 87.8125 -16.15625 93.1875 -18.46875 L 93.1875 -4.78125 C 88 -2.46875 82.859375 -0.78125 77.765625 0.28125 C 72.671875 1.34375 66.65625 1.875 59.71875 1.875 C 49.84375 1.875 41.234375 -0.140625 33.890625 -4.171875 C 26.546875 -8.203125 20.84375 -14.125 16.78125 -21.9375 C 12.71875 -29.75 10.6875 -39.3125 10.6875 -50.625 C 10.6875 -61.6875 12.546875 -71.265625 16.265625 -79.359375 C 19.984375 -87.453125 25.234375 -93.6875 32.015625 -98.0625 C 38.796875 -102.4375 46.78125 -104.625 55.96875 -104.625 Z M 55.78125 -91.875 C 47.46875 -91.875 40.84375 -89.15625 35.90625 -83.71875 C 30.96875 -78.28125 28.03125 -70.6875 27.09375 -60.9375 L 81.46875 -60.9375 C 81.40625 -67.0625 80.453125 -72.453125 78.609375 -77.109375 C 76.765625 -81.765625 73.96875 -85.390625 70.21875 -87.984375 C 66.46875 -90.578125 61.65625 -91.875 55.78125 -91.875 Z M 55.78125 -91.875 "/></g></g><g transform="translate(787.582944, 244.324598)"><g><path d="M 45.09375 46.125 C 31.59375 46.125 21.1875 43.609375 13.875 38.578125 C 6.5625 33.546875 2.90625 26.5 2.90625 17.4375 C 2.90625 11 4.953125 5.5 9.046875 0.9375 C 13.140625 -3.625 18.8125 -6.65625 26.0625 -8.15625 C 23.375 -9.40625 21.078125 -11.28125 19.171875 -13.78125 C 17.265625 -16.28125 16.3125 -19.15625 16.3125 -22.40625 C 16.3125 -26.15625 17.359375 -29.453125 19.453125 -32.296875 C 21.546875 -35.140625 24.75 -37.875 29.0625 -40.5 C 23.6875 -42.6875 19.328125 -46.390625 15.984375 -51.609375 C 12.640625 -56.828125 10.96875 -62.90625 10.96875 -69.84375 C 10.96875 -77.21875 12.5 -83.515625 15.5625 -88.734375 C 18.625 -93.953125 23.0625 -97.9375 28.875 -100.6875 C 34.6875 -103.4375 41.71875 -104.8125 49.96875 -104.8125 C 51.78125 -104.8125 53.609375 -104.734375 55.453125 -104.578125 C 57.296875 -104.421875 59.0625 -104.203125 60.75 -103.921875 C 62.4375 -103.640625 63.90625 -103.3125 65.15625 -102.9375 L 100.40625 -102.9375 L 100.40625 -92.90625 L 81.46875 -90.5625 C 83.34375 -88.125 84.90625 -85.1875 86.15625 -81.75 C 87.40625 -78.3125 88.03125 -74.5 88.03125 -70.3125 C 88.03125 -60.0625 84.5625 -51.921875 77.625 -45.890625 C 70.6875 -39.859375 61.15625 -36.84375 49.03125 -36.84375 C 46.15625 -36.84375 43.21875 -37.09375 40.21875 -37.59375 C 37.15625 -35.90625 34.828125 -34.03125 33.234375 -31.96875 C 31.640625 -29.90625 30.84375 -27.53125 30.84375 -24.84375 C 30.84375 -22.84375 31.453125 -21.25 32.671875 -20.0625 C 33.890625 -18.875 35.65625 -18.015625 37.96875 -17.484375 C 40.28125 -16.953125 43.0625 -16.6875 46.3125 -16.6875 L 64.40625 -16.6875 C 75.59375 -16.6875 84.171875 -14.34375 90.140625 -9.65625 C 96.109375 -4.96875 99.09375 1.875 99.09375 10.875 C 99.09375 22.25 94.46875 30.96875 85.21875 37.03125 C 75.96875 43.09375 62.59375 46.125 45.09375 46.125 Z M 45.5625 33.9375 C 54.0625 33.9375 61.109375 33.078125 66.703125 31.359375 C 72.296875 29.640625 76.484375 27.171875 79.265625 23.953125 C 82.046875 20.734375 83.4375 16.90625 83.4375 12.46875 C 83.4375 8.34375 82.5 5.234375 80.625 3.140625 C 78.75 1.046875 76 -0.359375 72.375 -1.078125 C 68.75 -1.796875 64.3125 -2.15625 59.0625 -2.15625 L 41.25 -2.15625 C 36.625 -2.15625 32.59375 -1.4375 29.15625 0 C 25.71875 1.4375 23.078125 3.5625 21.234375 6.375 C 19.390625 9.1875 18.46875 12.6875 18.46875 16.875 C 18.46875 22.4375 20.8125 26.671875 25.5 29.578125 C 30.1875 32.484375 36.875 33.9375 45.5625 33.9375 Z M 49.59375 -48.1875 C 57.03125 -48.1875 62.625 -50.0625 66.375 -53.8125 C 70.125 -57.5625 72 -63.03125 72 -70.21875 C 72 -77.90625 70.09375 -83.671875 66.28125 -87.515625 C 62.46875 -91.359375 56.84375 -93.28125 49.40625 -93.28125 C 42.28125 -93.28125 36.796875 -91.296875 32.953125 -87.328125 C 29.109375 -83.359375 27.1875 -77.5625 27.1875 -69.9375 C 27.1875 -62.9375 29.125 -57.5625 33 -53.8125 C 36.875 -50.0625 42.40625 -48.1875 49.59375 -48.1875 Z M 49.59375 -48.1875 "/></g></g><g transform="translate(891.832937, 244.324598)"><g><path d="M 101.25 -102.75 L 101.25 0 L 88.5 0 L 86.25 -14.4375 L 85.40625 -14.4375 C 83.28125 -10.875 80.53125 -7.875 77.15625 -5.4375 C 73.78125 -3 69.984375 -1.171875 65.765625 0.046875 C 61.546875 1.265625 57.0625 1.875 52.3125 1.875 C 44.1875 1.875 37.375 0.5625 31.875 -2.0625 C 26.375 -4.6875 22.234375 -8.75 19.453125 -14.25 C 16.671875 -19.75 15.28125 -26.8125 15.28125 -35.4375 L 15.28125 -102.75 L 31.03125 -102.75 L 31.03125 -36.5625 C 31.03125 -28 32.96875 -21.609375 36.84375 -17.390625 C 40.71875 -13.171875 46.625 -11.0625 54.5625 -11.0625 C 62.1875 -11.0625 68.265625 -12.5 72.796875 -15.375 C 77.328125 -18.25 80.59375 -22.484375 82.59375 -28.078125 C 84.59375 -33.671875 85.59375 -40.53125 85.59375 -48.65625 L 85.59375 -102.75 Z M 101.25 -102.75 "/></g></g><g transform="translate(1009.582929, 244.324598)"><g><path d="M 54.84375 -104.4375 C 67.09375 -104.4375 76.1875 -101.6875 82.125 -96.1875 C 88.0625 -90.6875 91.03125 -81.90625 91.03125 -69.84375 L 91.03125 0 L 79.6875 0 L 76.6875 -15.1875 L 75.9375 -15.1875 C 73.0625 -11.4375 70.0625 -8.296875 66.9375 -5.765625 C 63.8125 -3.234375 60.203125 -1.328125 56.109375 -0.046875 C 52.015625 1.234375 47 1.875 41.0625 1.875 C 34.8125 1.875 29.265625 0.78125 24.421875 -1.40625 C 19.578125 -3.59375 15.765625 -6.90625 12.984375 -11.34375 C 10.203125 -15.78125 8.8125 -21.40625 8.8125 -28.21875 C 8.8125 -38.46875 12.875 -46.34375 21 -51.84375 C 29.125 -57.34375 41.5 -60.34375 58.125 -60.84375 L 75.84375 -61.59375 L 75.84375 -67.875 C 75.84375 -76.75 73.9375 -82.96875 70.125 -86.53125 C 66.3125 -90.09375 60.9375 -91.875 54 -91.875 C 48.625 -91.875 43.5 -91.09375 38.625 -89.53125 C 33.75 -87.96875 29.125 -86.125 24.75 -84 L 19.96875 -95.8125 C 24.59375 -98.1875 29.90625 -100.21875 35.90625 -101.90625 C 41.90625 -103.59375 48.21875 -104.4375 54.84375 -104.4375 Z M 75.65625 -50.625 L 60 -49.96875 C 47.1875 -49.46875 38.15625 -47.375 32.90625 -43.6875 C 27.65625 -40 25.03125 -34.78125 25.03125 -28.03125 C 25.03125 -22.15625 26.8125 -17.8125 30.375 -15 C 33.9375 -12.1875 38.65625 -10.78125 44.53125 -10.78125 C 53.65625 -10.78125 61.125 -13.3125 66.9375 -18.375 C 72.75 -23.4375 75.65625 -31.03125 75.65625 -41.15625 Z M 75.65625 -50.625 "/></g></g><g transform="translate(1116.270422, 244.324598)"><g><path d="M 63.09375 -104.625 C 65.15625 -104.625 67.3125 -104.515625 69.5625 -104.296875 C 71.8125 -104.078125 73.8125 -103.78125 75.5625 -103.40625 L 73.59375 -88.96875 C 71.90625 -89.40625 70.03125 -89.75 67.96875 -90 C 65.90625 -90.25 63.96875 -90.375 62.15625 -90.375 C 58.03125 -90.375 54.140625 -89.546875 50.484375 -87.890625 C 46.828125 -86.234375 43.625 -83.859375 40.875 -80.765625 C 38.125 -77.671875 35.96875 -73.953125 34.40625 -69.609375 C 32.84375 -65.265625 32.0625 -60.4375 32.0625 -55.125 L 32.0625 0 L 16.40625 0 L 16.40625 -102.75 L 29.34375 -102.75 L 31.03125 -83.8125 L 31.6875 -83.8125 C 33.8125 -87.625 36.375 -91.109375 39.375 -94.265625 C 42.375 -97.421875 45.859375 -99.9375 49.828125 -101.8125 C 53.796875 -103.6875 58.21875 -104.625 63.09375 -104.625 Z M 63.09375 -104.625 "/></g></g><g transform="translate(1194.739167, 244.324598)"><g><path d="M 52.96875 1.875 C 39.96875 1.875 29.671875 -2.5625 22.078125 -11.4375 C 14.484375 -20.3125 10.6875 -33.5 10.6875 -51 C 10.6875 -68.6875 14.5625 -82.046875 22.3125 -91.078125 C 30.0625 -100.109375 40.375 -104.625 53.25 -104.625 C 58.6875 -104.625 63.4375 -103.90625 67.5 -102.46875 C 71.5625 -101.03125 75.0625 -99.109375 78 -96.703125 C 80.9375 -94.296875 83.40625 -91.5625 85.40625 -88.5 L 86.53125 -88.5 C 86.28125 -90.4375 86.03125 -93.09375 85.78125 -96.46875 C 85.53125 -99.84375 85.40625 -102.59375 85.40625 -104.71875 L 85.40625 -145.875 L 100.96875 -145.875 L 100.96875 0 L 88.40625 0 L 86.0625 -14.625 L 85.40625 -14.625 C 83.46875 -11.5625 81.015625 -8.78125 78.046875 -6.28125 C 75.078125 -3.78125 71.546875 -1.796875 67.453125 -0.328125 C 63.359375 1.140625 58.53125 1.875 52.96875 1.875 Z M 55.40625 -11.0625 C 66.40625 -11.0625 74.1875 -14.1875 78.75 -20.4375 C 83.3125 -26.6875 85.59375 -35.96875 85.59375 -48.28125 L 85.59375 -51.09375 C 85.59375 -64.15625 83.421875 -74.1875 79.078125 -81.1875 C 74.734375 -88.1875 66.84375 -91.6875 55.40625 -91.6875 C 45.84375 -91.6875 38.6875 -88.015625 33.9375 -80.671875 C 29.1875 -73.328125 26.8125 -63.3125 26.8125 -50.625 C 26.8125 -38 29.171875 -28.25 33.890625 -21.375 C 38.609375 -14.5 45.78125 -11.0625 55.40625 -11.0625 Z M 55.40625 -11.0625 "/></g></g></g><g clip-path="url(#085f6680b0)"><path fill="#000000" d="M 1369.515625 99.523438 L 1313.265625 121.632812 L 1313.265625 167.523438 C 1313.265625 230.921875 1368.734375 243.835938 1369.292969 243.957031 L 1369.507812 244.003906 L 1369.722656 243.960938 C 1370.28125 243.847656 1425.765625 231.957031 1425.765625 167.519531 L 1425.765625 121.632812 Z M 1423.695312 167.523438 C 1423.695312 228.21875 1373.25 241.027344 1369.523438 241.886719 C 1365.792969 240.960938 1315.332031 227.242188 1315.332031 167.523438 L 1315.332031 123.042969 L 1369.515625 101.75 L 1423.695312 123.042969 Z M 1423.695312 167.523438 " fill-opacity="1" fill-rule="nonzero"/></g><path fill="#1a77f2" d="M 1350 176.957031 C 1349.574219 176.554688 1349.015625 176.332031 1348.433594 176.332031 C 1347.179688 176.332031 1346.152344 177.363281 1346.152344 178.617188 C 1346.152344 179.199219 1346.375 179.761719 1346.777344 180.1875 L 1360.449219 193.875 C 1360.875 194.300781 1361.457031 194.542969 1362.058594 194.542969 C 1362.664062 194.542969 1363.242188 194.300781 1363.671875 193.875 L 1404.703125 152.796875 C 1405.082031 152.375 1405.296875 151.828125 1405.296875 151.261719 C 1405.296875 150.007812 1404.265625 148.976562 1403.015625 148.976562 C 1402.449219 148.976562 1401.90625 149.1875 1401.488281 149.566406 L 1362.066406 189.039062 Z M 1350 176.957031 " fill-opacity="1" fill-rule="nonzero"/></svg>